<svg xmlns="http://www.w3.org/2000/svg" xmlns:xlink="http://www.w3.org/1999/xlink" xmlns:sketch="http://www.bohemiancoding.com/sketch/ns" viewBox="0 0 161 175" version="1.1"><title>Logo 3</title><desc>Created with Sketch.</desc><g id="Developed" stroke="none" stroke-width="1" fill="none" fill-rule="evenodd" sketch:type="MSPage"><g id="Holding-Page-Main-2" sketch:type="MSArtboardGroup" transform="translate(-99.000000, -94.000000)" fill="#FFFFFF"><g id="Black-Area-4" sketch:type="MSLayerGroup"><g id="Logo-3" transform="translate(100.000000, 95.000000)" sketch:type="MSShapeGroup"><path d="M94.99 170.4C94.86 171 94.66 171.91 94.66 171.91L94.64 171.91C94.64 171.91 94.47 171.04 94.32 170.44L93.58 167.01 92.24 167.01 91.49 170.45C91.34 171.05 91.17 171.91 91.17 171.91L91.15 171.91C91.15 171.91 90.99 171 90.86 170.41L89.97 167.01 88.55 167.01 90.54 173.86 91.82 173.86 92.67 170.19C92.78 169.69 92.89 168.98 92.89 168.98L92.91 168.98C92.91 168.98 93.03 169.69 93.15 170.19L93.98 173.86 95.27 173.86 97.22 167.01 95.86 167.01 94.99 170.4M62.73 124.84L60.67 124.84 60.67 152.73 77.1 152.73 77.1 150.71 62.73 150.71 62.73 124.84M105.16 143.15C105.16 148.5 102.46 151.21 97.13 151.21 91.81 151.21 89.1 148.5 89.1 143.15L89.1 124.84 87.05 124.84 87.05 143.15C87.05 149.65 90.63 153.23 97.13 153.23 103.63 153.23 107.21 149.65 107.21 143.15L107.21 124.84 105.16 124.84 105.16 143.15M132.74 150.71L124.12 150.71 124.12 138.98 132.74 138.98C135.71 138.98 138.13 141.61 138.13 144.84 138.13 148.08 135.71 150.71 132.74 150.71L132.74 150.71ZM124.12 126.86L132.42 126.86C134.97 126.86 137.05 129.12 137.05 131.91 137.05 134.69 134.97 136.96 132.42 136.96L124.12 136.96 124.12 126.86 124.12 126.86ZM136.1 137.81C137.91 136.54 139.1 134.37 139.1 131.91 139.1 128.01 136.1 124.84 132.42 124.84L122.07 124.84 122.07 152.73 132.74 152.73C136.85 152.73 140.19 149.19 140.19 144.84 140.19 141.78 138.52 139.11 136.1 137.81L136.1 137.81ZM33.86 126.38C38.53 126.38 42.61 128.88 44.79 132.59L46.57 131.58C44.03 127.27 39.29 124.37 33.86 124.37 25.76 124.37 19.17 130.83 19.17 138.78 19.17 146.73 25.76 153.2 33.86 153.2 39.29 153.2 44.03 150.3 46.57 145.99L44.79 144.98C42.61 148.69 38.53 151.18 33.86 151.18 26.89 151.18 21.23 145.62 21.23 138.78 21.23 131.95 26.89 126.38 33.86 126.38M58.49 94.62L43.3 94.62 43.3 82.55 41.25 82.55 41.25 110.43 43.3 110.43 43.3 96.64 58.49 96.64 58.49 110.43 60.55 110.43 60.55 82.55 58.49 82.55 58.49 94.62M94.67 108.42L80.29 108.42 80.29 96.64 92.1 96.64 92.1 94.62 80.29 94.62 80.29 84.57 94.67 84.57 94.67 82.55 78.24 82.55 78.24 110.43 94.67 110.43 94.67 108.42M124.49 94.62L112.69 94.62 112.69 84.57 127.06 84.57 127.06 82.55 110.63 82.55 110.63 110.43 112.69 110.43 112.69 96.64 124.49 96.64 124.49 94.62M149.94 94.89C144.81 94.25 142.82 92.91 142.82 90.11 142.82 84.5 148.19 84.06 149.83 84.06 152.64 84.06 156.81 85.98 156.81 90.11L158.86 90.11C158.86 86.9 157.09 84.97 155.61 83.91 153.96 82.74 151.81 82.05 149.83 82.05 144.32 82.05 140.76 85.21 140.76 90.11 140.76 95.11 145.27 96.34 149.68 96.89 155.35 97.6 157.56 99.09 157.56 102.22 157.56 108.44 151.61 108.92 149.79 108.92 145.53 108.92 142.07 105.91 142.07 102.22L140.01 102.22C140.01 107.03 144.4 110.94 149.79 110.94 155.76 110.94 159.61 107.52 159.61 102.22 159.61 96.82 154.72 95.49 149.94 94.89M27.15 103.7L25.37 102.69C23.18 106.39 19.1 108.89 14.43 108.89 7.47 108.89 1.8 103.33 1.8 96.49 1.8 89.66 7.47 84.09 14.43 84.09 19.1 84.09 23.18 86.59 25.37 90.3L27.15 89.29C24.6 84.98 19.86 82.07 14.43 82.07 6.34 82.07-0.25 88.54-0.25 96.49 -0.25 104.44 6.34 110.91 14.43 110.91 19.86 110.91 24.6 108 27.15 103.7M55.17 173.86L56.56 173.86 56.56 171.03 59.44 171.03 59.44 169.84 56.56 169.84 56.56 168.19 59.97 168.19 59.97 167.01 55.17 167.01 55.17 173.86M64.06 172.87C62.81 172.87 62.17 171.81 62.17 170.45 62.17 169.08 62.81 168.02 64.06 168.02 65.32 168.02 65.93 169.08 65.93 170.45 65.93 171.81 65.32 172.87 64.06 172.87M64.05 166.88C62.03 166.88 60.75 168.4 60.75 170.45 60.75 172.5 62.03 174.01 64.05 174.01 66.07 174.01 67.35 172.5 67.35 170.45 67.35 168.4 66.07 166.88 64.05 166.88M110.32 172.7L110.32 170.85 113.52 170.85 113.52 169.71 110.32 169.71 110.32 168.18 113.97 168.18 113.97 167.01 108.93 167.01 108.93 173.86 114 173.86 114 172.7 110.32 172.7M98.38 167.01L99.77 167.01 99.77 173.86 98.38 173.86 98.38 167.01ZM105.75 170.6C105.75 171.08 105.78 171.79 105.78 171.79L105.77 171.79C105.77 171.79 105.51 171.21 105.29 170.83L103.01 167.01 101.6 167.01 101.6 173.86 102.97 173.86 102.97 170.33C102.97 169.85 102.93 169.13 102.93 169.13L102.95 169.13C102.95 169.13 103.22 169.71 103.44 170.08L105.78 173.86 107.12 173.86 107.12 167.01 105.75 167.01 105.75 170.6M71.69 172.87C70.44 172.87 69.8 171.81 69.8 170.45 69.8 169.08 70.44 168.02 71.69 168.02 72.95 168.02 73.56 169.08 73.56 170.45 73.56 171.81 72.95 172.87 71.69 172.87M71.68 166.88C69.66 166.88 68.38 168.4 68.38 170.45 68.38 172.5 69.66 174.01 71.68 174.01 73.7 174.01 74.98 172.5 74.98 170.45 74.98 168.4 73.7 166.88 71.68 166.88M78.96 172.66L77.89 172.66 77.89 168.2 79 168.2C80.18 168.2 80.77 169.15 80.77 170.51 80.77 171.87 80.26 172.66 78.96 172.66M79.17 167.01L76.5 167.01 76.5 173.86 79.06 173.86C79.92 173.86 80.58 173.62 81.09 173.2 81.81 172.6 82.18 171.62 82.18 170.51 82.18 168.49 81 167.01 79.17 167.01M47.48 173.65C47.36 173.65 47.08 173.63 46.9 173.55 46.69 173.45 46.69 173.36 46.67 173.03 46.66 172.93 46.66 172.1 46.66 171.59L46.66 171.21C46.66 171.18 46.68 171.17 46.7 171.17 46.81 171.17 47.14 171.17 47.22 171.18 47.38 171.2 47.55 171.22 47.78 171.37 48.29 171.72 48.42 172.3 48.42 172.7 48.42 173.45 47.84 173.65 47.48 173.65L47.48 173.65ZM46.66 169.1C46.66 169.06 46.68 169.04 46.75 169.03 46.85 169 46.99 169 47.06 169 47.72 169 47.96 169.59 47.96 170.14 47.96 170.41 47.86 170.65 47.72 170.81 47.58 170.97 47.49 170.99 47.12 170.99 46.87 170.99 46.75 170.97 46.71 170.96 46.68 170.95 46.66 170.93 46.66 170.89L46.66 169.1 46.66 169.1ZM47.84 171.01C48.15 170.68 48.47 170.35 48.47 169.81 48.47 169.48 48.23 168.81 47.14 168.81 46.83 168.81 46.57 168.83 46.41 168.83 46.38 168.83 45.96 168.81 45.66 168.81 45.59 168.81 45.55 168.83 45.55 168.86 45.55 168.89 45.58 168.9 45.61 168.9 45.67 168.9 45.78 168.91 45.83 168.92 46.05 168.97 46.11 169.08 46.12 169.3 46.13 169.52 46.13 169.7 46.13 170.74L46.13 171.91C46.13 172.55 46.13 173.08 46.1 173.36 46.07 173.55 46.04 173.69 45.91 173.72 45.85 173.73 45.77 173.75 45.71 173.75 45.67 173.75 45.65 173.77 45.65 173.79 45.65 173.83 45.69 173.84 45.76 173.84 45.86 173.84 46.01 173.83 46.15 173.83 46.28 173.82 46.4 173.82 46.41 173.82 46.44 173.82 46.62 173.83 46.82 173.84 47.01 173.85 47.22 173.86 47.3 173.86 48.43 173.86 48.99 173.12 48.99 172.41 48.99 171.63 48.34 171.16 47.84 171.01L47.84 171.01ZM53.83 168.81C53.7 168.81 53.22 168.83 53.19 168.83 53.13 168.83 52.92 168.81 52.75 168.81 52.68 168.81 52.64 168.82 52.64 168.85 52.64 168.88 52.68 168.9 52.74 168.92 52.82 168.94 52.85 169.01 52.85 169.1 52.85 169.19 52.82 169.3 52.73 169.44 52.6 169.66 51.76 171.12 51.63 171.4 51.51 171.21 50.58 169.49 50.47 169.3 50.42 169.2 50.38 169.12 50.38 169.04 50.38 168.99 50.42 168.95 50.47 168.92 50.53 168.89 50.57 168.88 50.57 168.86 50.57 168.83 50.56 168.81 50.48 168.81 50.22 168.81 49.97 168.83 49.93 168.83 49.89 168.83 49.39 168.81 49.27 168.81 49.21 168.81 49.18 168.83 49.18 168.86 49.18 168.89 49.21 168.9 49.25 168.9 49.31 168.9 49.43 168.95 49.53 169.01 49.65 169.09 49.82 169.26 49.98 169.5 50.22 169.85 51.04 171.31 51.09 171.42 51.18 171.61 51.24 171.76 51.24 172.12L51.24 172.69C51.24 172.8 51.24 173.08 51.22 173.36 51.21 173.55 51.15 173.69 51.02 173.72 50.96 173.73 50.88 173.75 50.82 173.75 50.78 173.75 50.76 173.77 50.76 173.79 50.76 173.83 50.8 173.84 50.87 173.84 51.07 173.84 51.49 173.82 51.52 173.82 51.56 173.82 51.97 173.84 52.34 173.84 52.41 173.84 52.45 173.82 52.45 173.79 52.45 173.77 52.43 173.75 52.39 173.75 52.33 173.75 52.19 173.73 52.09 173.72 51.9 173.69 51.84 173.55 51.82 173.36 51.8 173.08 51.8 172.8 51.8 172.69L51.8 172.12C51.8 171.9 51.8 171.69 51.9 171.45 52.02 171.17 52.95 169.6 53.17 169.34 53.32 169.16 53.39 169.08 53.53 169 53.63 168.93 53.76 168.9 53.83 168.9 53.88 168.9 53.92 168.88 53.92 168.85 53.92 168.82 53.88 168.81 53.83 168.81M85.25 173.5C84.49 173.5 83.89 172.89 83.89 172.05 83.89 171.5 84.15 171.14 84.5 170.91 84.69 171.19 85.12 171.67 85.3 171.86 85.47 172.05 86.14 172.69 86.52 173 86.29 173.24 85.87 173.5 85.25 173.5M88.79 173.67C88.55 173.67 88.2 173.53 87.98 173.41 87.8 173.3 87.5 173.12 87.05 172.74 87.35 172.37 87.72 171.69 87.72 171.14 87.72 171.07 87.7 171.02 87.6 171 87.22 170.96 86.95 170.96 86.79 170.96 86.73 170.96 86.68 170.97 86.68 171 86.68 171.04 86.72 171.05 86.76 171.05 86.86 171.05 87 171.07 87.09 171.16 87.19 171.26 87.22 171.39 87.22 171.49 87.22 171.9 87.06 172.36 86.87 172.61 86.66 172.43 85.83 171.65 85.6 171.4 84.89 170.64 84.53 170.2 84.53 169.67 84.53 169.04 84.98 168.79 85.39 168.79 85.69 168.79 85.92 168.93 86.06 169.09 86.23 169.26 86.27 169.48 86.27 169.66 86.27 169.76 86.28 169.79 86.31 169.79 86.34 169.79 86.36 169.77 86.38 169.67 86.4 169.57 86.43 169.1 86.43 168.89 86.43 168.81 86.42 168.77 86.34 168.73 86.16 168.62 85.87 168.55 85.52 168.55 84.62 168.55 84.07 169.27 84.07 169.8 84.07 170.11 84.15 170.38 84.4 170.73 83.87 171.05 83.36 171.57 83.36 172.36 83.36 172.95 83.82 173.86 85.01 173.86 86.01 173.86 86.54 173.28 86.7 173.13 87.44 173.72 87.61 173.76 88.11 173.76L88.77 173.76C88.83 173.76 88.89 173.74 88.89 173.72 88.89 173.68 88.85 173.67 88.79 173.67M79.78 52.64L79.78 51.03C70.31 51.03 62.61 43.33 62.61 33.86 62.61 24.4 70.31 16.69 79.78 16.69 89.24 16.69 96.94 24.4 96.94 33.86L98.56 33.86C98.55 44.21 90.13 52.64 79.78 52.64M79.78 14.75C69.24 14.75 60.66 23.32 60.66 33.86 60.66 44.4 69.24 52.97 79.78 52.97 90.31 52.97 98.89 44.4 98.89 33.86 98.89 23.32 90.31 14.75 79.78 14.75M113.72 33.86L112.09 33.86C112.09 51.68 97.6 66.18 79.78 66.18 61.96 66.18 47.46 51.68 47.46 33.86 47.46 16.04 61.96 1.54 79.78 1.54L79.78-0.09C98.49-0.09 113.72 15.14 113.72 33.86M79.78-0.42C60.88-0.42 45.5 14.96 45.5 33.86 45.5 52.76 60.88 68.14 79.78 68.14 98.68 68.14 114.06 52.76 114.06 33.86 114.06 14.96 98.68-0.42 79.78-0.42" id="Fill-1"/></g></g></g></g></svg>