<?xml version="1.0" encoding="UTF-8" standalone="no"?>
<svg width="161px" height="175px" viewBox="0 0 161 175" version="1.1" xmlns="http://www.w3.org/2000/svg" xmlns:xlink="http://www.w3.org/1999/xlink" xmlns:sketch="http://www.bohemiancoding.com/sketch/ns">
    <!-- Generator: Sketch 3.1.1 (8761) - http://www.bohemiancoding.com/sketch -->
    <title>Logo 3</title>
    <desc>Created with Sketch.</desc>
    <defs></defs>
    <g id="Developed" stroke="none" stroke-width="1" fill="none" fill-rule="evenodd" sketch:type="MSPage">
        <g id="Holding-Page-Main-2" sketch:type="MSArtboardGroup" transform="translate(-99.000000, -94.000000)" fill="#FFFFFF">
            <g id="Black-Area-4" sketch:type="MSLayerGroup">
                <g id="Logo-3" transform="translate(100.000000, 95.000000)" sketch:type="MSShapeGroup">
                    <path d="M94.9935,170.40275 C94.85875,170.996875 94.658375,171.906 94.658375,171.906 L94.639125,171.906 C94.639125,171.906 94.46675,171.044125 94.32325,170.44125 L93.576875,167.013875 L92.236375,167.013875 L91.49,170.450875 C91.34475,171.054625 91.17325,171.906 91.17325,171.906 L91.154,171.906 C91.154,171.906 90.99125,170.996875 90.857375,170.412375 L89.9675,167.013875 L88.549125,167.013875 L90.540625,173.859875 L91.82425,173.859875 L92.666875,170.19275 C92.7815,169.694875 92.8865,168.9765 92.8865,168.9765 L92.90575,168.9765 C92.90575,168.9765 93.03,169.694875 93.1455,170.19275 L93.979375,173.859875 L95.270875,173.859875 L97.223875,167.013875 L95.855375,167.013875 L94.9935,170.40275" id="Fill-1"></path>
                    <path d="M62.727,124.842375 L60.671625,124.842375 L60.671625,152.726875 L77.098,152.726875 L77.098,150.709125 L62.727,150.709125 L62.727,124.842375" id="Fill-2"></path>
                    <path d="M105.1575,143.147375 C105.1575,148.49975 102.45725,151.214 97.132,151.214 C91.80675,151.214 89.10475,148.49975 89.10475,143.147375 L89.10475,124.84325 L87.049375,124.84325 L87.049375,143.147375 C87.049375,149.650375 90.629875,153.23175 97.132,153.23175 C103.632375,153.23175 107.212,149.650375 107.212,143.147375 L107.212,124.84325 L105.1575,124.84325 L105.1575,143.147375" id="Fill-3"></path>
                    <path d="M132.740125,150.709125 L124.124875,150.709125 L124.124875,138.978 L132.740125,138.978 C135.7125,138.978 138.131,141.61 138.131,144.844 C138.131,148.078 135.7125,150.709125 132.740125,150.709125 L132.740125,150.709125 Z M124.124875,126.85925 L132.41725,126.85925 C134.96875,126.85925 137.045125,129.124625 137.045125,131.90975 C137.045125,134.694875 134.96875,136.96025 132.41725,136.96025 L124.124875,136.96025 L124.124875,126.85925 L124.124875,126.85925 Z M136.096625,137.80725 C137.906125,136.542 139.101375,134.37025 139.101375,131.90975 C139.101375,128.0125 136.10275,124.8415 132.41725,124.8415 L122.070375,124.8415 L122.070375,152.726 L132.740125,152.726 C136.845625,152.726 140.1855,149.191 140.1855,144.844 C140.1855,141.775375 138.520375,139.108375 136.096625,137.80725 L136.096625,137.80725 Z" id="Fill-4"></path>
                    <path d="M33.859875,126.382375 C38.52625,126.382375 42.60725,128.88225 44.79475,132.586125 L46.5745,131.579 C44.030875,127.2705 39.28575,124.3655 33.859875,124.3655 C25.76175,124.3655 19.173,130.832625 19.173,138.78375 C19.173,146.734 25.76175,153.201125 33.859875,153.201125 C39.28575,153.201125 44.03,150.296125 46.5745,145.989375 L44.79475,144.981375 C42.60725,148.68525 38.52625,151.18425 33.859875,151.18425 C26.894,151.18425 21.2275,145.621 21.2275,138.78375 C21.2275,131.945625 26.894,126.382375 33.859875,126.382375" id="Fill-5"></path>
                    <path d="M58.49025,94.619 L43.30025,94.619 L43.30025,82.551 L41.24575,82.551 L41.24575,110.434625 L43.30025,110.434625 L43.30025,96.63675 L58.49025,96.63675 L58.49025,110.434625 L60.5465,110.434625 L60.5465,82.551 L58.49025,82.551 L58.49025,94.619" id="Fill-6"></path>
                    <path d="M94.665375,108.416875 L80.294375,108.416875 L80.294375,96.635875 L92.096375,96.635875 L92.096375,94.619 L80.294375,94.619 L80.294375,84.567875 L94.665375,84.567875 L94.665375,82.550125 L78.239875,82.550125 L78.239875,110.434625 L94.665375,110.434625 L94.665375,108.416875" id="Fill-7"></path>
                    <path d="M124.48975,94.619 L112.68775,94.619 L112.68775,84.56875 L127.057875,84.56875 L127.057875,82.551 L110.63325,82.551 L110.63325,110.434625 L112.68775,110.434625 L112.68775,96.63675 L124.48975,96.63675 L124.48975,94.619" id="Fill-8"></path>
                    <path d="M149.940875,94.892 C144.81425,94.252375 142.816625,92.910125 142.816625,90.1075 C142.816625,84.499625 148.187375,84.063 149.832375,84.063 C152.644625,84.063 156.80525,85.9845 156.80525,90.1075 L158.860625,90.1075 C158.860625,86.89975 157.0905,84.96775 155.6065,83.91075 C153.964125,82.7435 151.8055,82.046125 149.832375,82.046125 C144.3225,82.046125 140.762125,85.210125 140.762125,90.1075 C140.762125,95.1055 145.271,96.34275 149.68275,96.893125 C155.348375,97.59925 157.556875,99.092875 157.556875,102.218375 C157.556875,108.437 151.610375,108.920875 149.786875,108.920875 C145.529125,108.920875 142.06675,105.914375 142.06675,102.218375 L140.0105,102.218375 C140.0105,107.0265 144.396,110.93775 149.786875,110.93775 C155.75525,110.93775 159.61225,107.5165 159.61225,102.218375 C159.61225,96.824 154.723625,95.487 149.940875,94.892" id="Fill-9"></path>
                    <path d="M27.14775,103.698 L25.368,102.69 C23.181375,106.39475 19.10125,108.89375 14.434,108.89375 C7.469,108.89375 1.801625,103.329625 1.801625,96.492375 C1.801625,89.655125 7.469,84.091875 14.434,84.091875 C19.10125,84.091875 23.18225,86.590875 25.368875,90.295625 L27.14775,89.287625 C24.604125,84.979125 19.859875,82.074125 14.434,82.074125 C6.335875,82.074125 -0.252875,88.542125 -0.252875,96.492375 C-0.252875,104.4435 6.335875,110.910625 14.434,110.910625 C19.859875,110.910625 24.604125,108.00475 27.14775,103.698" id="Fill-10"></path>
                    <path d="M55.167875,173.859875 L56.555625,173.859875 L56.555625,171.02575 L59.437875,171.02575 L59.437875,169.838375 L56.555625,169.838375 L56.555625,168.19075 L59.973375,168.19075 L59.973375,167.013875 L55.167875,167.013875 L55.167875,173.859875" id="Fill-11"></path>
                    <path d="M64.061375,172.872875 C62.808375,172.872875 62.166125,171.810625 62.166125,170.45 C62.166125,169.082375 62.808375,168.01925 64.061375,168.01925 C65.316125,168.01925 65.928625,169.082375 65.928625,170.45 C65.928625,171.810625 65.316125,172.872875 64.061375,172.872875 M64.052625,166.88 C62.03225,166.88 60.748625,168.4025 60.748625,170.45 C60.748625,172.500125 62.03225,174.013875 64.052625,174.013875 C66.073,174.013875 67.347,172.500125 67.347,170.45 C67.347,168.4025 66.073,166.88 64.052625,166.88" id="Fill-12"></path>
                    <path d="M110.322625,172.701375 L110.322625,170.853375 L113.521625,170.853375 L113.521625,169.714125 L110.322625,169.714125 L110.322625,168.182 L113.9705,168.182 L113.9705,167.013875 L108.934875,167.013875 L108.934875,173.859875 L113.999375,173.859875 L113.999375,172.701375 L110.322625,172.701375" id="Fill-13"></path>
                    <path d="M98.38325,167.013875 L99.771875,167.013875 L99.771875,173.859875 L98.38325,173.859875 L98.38325,167.013875 Z" id="Fill-14"></path>
                    <path d="M105.746375,170.604 C105.746375,171.082625 105.784,171.791375 105.784,171.791375 L105.765625,171.791375 C105.765625,171.791375 105.5075,171.20775 105.287,170.834125 L103.007625,167.013875 L101.600625,167.013875 L101.600625,173.859875 L102.969125,173.859875 L102.969125,170.326625 C102.969125,169.848 102.9315,169.129625 102.9315,169.129625 L102.95075,169.129625 C102.95075,169.129625 103.2185,169.714125 103.439,170.078125 L105.77525,173.859875 L107.11575,173.859875 L107.11575,167.013875 L105.746375,167.013875 L105.746375,170.604" id="Fill-15"></path>
                    <path d="M71.693125,172.872875 C70.43925,172.872875 69.797,171.810625 69.797,170.45 C69.797,169.082375 70.43925,168.01925 71.693125,168.01925 C72.947875,168.01925 73.560375,169.082375 73.560375,170.45 C73.560375,171.810625 72.947875,172.872875 71.693125,172.872875 M71.6835,166.88 C69.66225,166.88 68.380375,168.4025 68.380375,170.45 C68.380375,172.500125 69.66225,174.013875 71.6835,174.013875 C73.703875,174.013875 74.977,172.500125 74.977,170.45 C74.977,168.4025 73.703875,166.88 71.6835,166.88" id="Fill-16"></path>
                    <path d="M78.960875,172.662875 L77.889,172.662875 L77.889,168.200375 L78.999375,168.200375 C80.17625,168.200375 80.770375,169.148875 80.770375,170.508625 C80.770375,171.868375 80.262875,172.662875 78.960875,172.662875 M79.17175,167.013875 L76.4995,167.013875 L76.4995,173.859875 L79.057125,173.859875 C79.919,173.859875 80.57875,173.620125 81.085375,173.19925 C81.8055,172.5955 82.177375,171.619 82.177375,170.508625 C82.177375,168.48825 81.0005,167.013875 79.17175,167.013875" id="Fill-17"></path>
                    <path d="M47.483625,173.64725 C47.362875,173.64725 47.07675,173.634125 46.897375,173.5475 C46.692625,173.44775 46.692625,173.355 46.671625,173.0295 C46.664625,172.928875 46.664625,172.10375 46.664625,171.591875 L46.664625,171.212125 C46.664625,171.17975 46.67775,171.166625 46.704875,171.166625 C46.8055,171.166625 47.137125,171.166625 47.222,171.17975 C47.383875,171.199875 47.550125,171.219125 47.775875,171.373125 C48.288625,171.724875 48.42075,172.304125 48.42075,172.70225 C48.42075,173.453875 47.8415,173.64725 47.483625,173.64725 L47.483625,173.64725 Z M46.664625,169.10425 C46.664625,169.064 46.683875,169.043875 46.745125,169.03075 C46.851,169.003625 46.991,168.9975 47.063625,168.9975 C47.716375,168.9975 47.961375,169.589875 47.961375,170.142 C47.961375,170.41325 47.8625,170.653875 47.7225,170.814 C47.5825,170.97325 47.488875,170.986375 47.117,170.986375 C46.871125,170.986375 46.75125,170.96625 46.71275,170.95925 C46.67775,170.946125 46.664625,170.933875 46.664625,170.88575 L46.664625,169.10425 L46.664625,169.10425 Z M47.8415,171.007375 C48.15475,170.681 48.468,170.35375 48.468,169.8095 C48.468,169.477 48.22825,168.812 47.137125,168.812 C46.830875,168.812 46.571875,168.830375 46.412625,168.830375 C46.3785,168.830375 45.9585,168.812 45.660125,168.812 C45.5875,168.812 45.55425,168.825125 45.55425,168.863625 C45.55425,168.89075 45.5805,168.90475 45.60675,168.90475 C45.667125,168.90475 45.78,168.910875 45.8325,168.924875 C46.053,168.97125 46.10725,169.077125 46.1195,169.302875 C46.1335,169.516375 46.1335,169.70275 46.1335,170.7405 L46.1335,171.91125 C46.1335,172.550875 46.1335,173.075875 46.099375,173.355 C46.074,173.5475 46.039,173.693625 45.906875,173.72075 C45.8465,173.733875 45.76775,173.746125 45.7065,173.746125 C45.667125,173.746125 45.654,173.767125 45.654,173.78725 C45.654,173.8275 45.68725,173.83975 45.759875,173.83975 C45.8605,173.83975 46.01275,173.8275 46.14575,173.8275 C46.284875,173.819625 46.398625,173.819625 46.412625,173.819625 C46.43975,173.819625 46.6235,173.8275 46.816875,173.83975 C47.011125,173.84675 47.222,173.859875 47.296375,173.859875 C48.433875,173.859875 48.993,173.121375 48.993,172.410875 C48.993,171.63125 48.335,171.159625 47.8415,171.007375 L47.8415,171.007375 Z" id="Fill-18"></path>
                    <path d="M53.830875,168.811125 C53.704875,168.811125 53.2245,168.83125 53.185125,168.83125 C53.13175,168.83125 52.919125,168.811125 52.747625,168.811125 C52.679375,168.811125 52.639125,168.82425 52.639125,168.851375 C52.639125,168.884625 52.679375,168.89775 52.740625,168.917875 C52.819375,168.937125 52.8465,169.010625 52.8465,169.103375 C52.8465,169.19 52.819375,169.30375 52.73275,169.44375 C52.59975,169.6625 51.755375,171.119375 51.629375,171.3985 C51.508625,171.206 50.57675,169.490125 50.470875,169.29675 C50.4175,169.197 50.383375,169.11825 50.383375,169.03775 C50.383375,168.98525 50.4175,168.945 50.470875,168.917875 C50.53125,168.89075 50.5715,168.884625 50.5715,168.8575 C50.5715,168.83125 50.556625,168.811125 50.484,168.811125 C50.224125,168.811125 49.97125,168.83125 49.92575,168.83125 C49.891625,168.83125 49.392875,168.811125 49.266,168.811125 C49.207375,168.811125 49.18025,168.83125 49.18025,168.8575 C49.18025,168.89075 49.2135,168.90475 49.24675,168.90475 C49.307125,168.90475 49.43225,168.945 49.532,169.010625 C49.651875,169.091125 49.819,169.257375 49.984375,169.50325 C50.218,169.848875 51.044,171.31275 51.090375,171.418625 C51.177,171.611125 51.244375,171.758125 51.244375,172.11775 L51.244375,172.689125 C51.244375,172.79675 51.244375,173.075 51.2225,173.355 C51.209375,173.5475 51.149,173.693625 51.016875,173.72075 C50.957375,173.73475 50.876875,173.746125 50.8165,173.746125 C50.777125,173.746125 50.764,173.767125 50.764,173.786375 C50.764,173.8275 50.796375,173.83975 50.87075,173.83975 C51.069375,173.83975 51.49025,173.8205 51.52175,173.8205 C51.555875,173.8205 51.974125,173.83975 52.34075,173.83975 C52.41425,173.83975 52.448375,173.8205 52.448375,173.786375 C52.448375,173.767125 52.434375,173.746125 52.394125,173.746125 C52.33375,173.746125 52.187625,173.73475 52.094,173.72075 C51.895375,173.693625 51.835,173.5475 51.82275,173.355 C51.802625,173.075 51.802625,172.79675 51.802625,172.689125 L51.802625,172.11775 C51.802625,171.89725 51.802625,171.691625 51.9015,171.451875 C52.021375,171.16575 52.952375,169.603 53.171125,169.337 C53.319875,169.15675 53.3925,169.077125 53.5255,168.9975 C53.631375,168.931 53.757375,168.90475 53.830875,168.90475 C53.883375,168.90475 53.9175,168.884625 53.9175,168.851375 C53.9175,168.82425 53.87725,168.811125 53.830875,168.811125" id="Fill-19"></path>
                    <path d="M85.246,173.499375 C84.4865,173.499375 83.8915,172.89125 83.8915,172.046 C83.8915,171.504375 84.147875,171.1395 84.5005,170.909375 C84.690375,171.187625 85.122625,171.667125 85.30025,171.857875 C85.4735,172.046 86.144625,172.687375 86.522625,172.998875 C86.29425,173.236 85.873375,173.499375 85.246,173.499375 M88.788875,173.66825 C88.545625,173.66825 88.200875,173.5335 87.983875,173.40575 C87.79575,173.29725 87.497375,173.11525 87.052,172.736375 C87.348625,172.36975 87.7205,171.68725 87.7205,171.1395 C87.7205,171.073 87.700375,171.01875 87.597125,171.003875 C87.22,170.963625 86.949625,170.956625 86.786875,170.956625 C86.73175,170.956625 86.678375,170.9715 86.678375,171.003875 C86.678375,171.037125 86.720375,171.052 86.760625,171.052 C86.86125,171.052 87.00475,171.073 87.091375,171.159625 C87.192875,171.261125 87.22,171.388875 87.22,171.49125 C87.22,171.90425 87.06425,172.35575 86.874375,172.613875 C86.659125,172.431 85.827,171.654 85.59775,171.40375 C84.893375,170.639 84.527625,170.198875 84.527625,169.672125 C84.527625,169.036875 84.98175,168.78575 85.386875,168.78575 C85.68525,168.78575 85.91625,168.928375 86.06325,169.085 C86.232125,169.26 86.272375,169.483125 86.272375,169.658125 C86.272375,169.7605 86.28025,169.785875 86.3135,169.785875 C86.340625,169.785875 86.361625,169.77275 86.380875,169.672125 C86.401,169.56975 86.429,169.09725 86.429,168.893375 C86.429,168.81375 86.421125,168.772625 86.340625,168.72625 C86.15775,168.623 85.866375,168.55475 85.523375,168.55475 C84.615125,168.55475 84.06825,169.266125 84.06825,169.801625 C84.06825,170.10525 84.147875,170.382625 84.399,170.734375 C83.871375,171.045 83.36475,171.572625 83.36475,172.363625 C83.36475,172.951625 83.824125,173.859875 85.008875,173.859875 C86.008125,173.859875 86.543625,173.284125 86.699375,173.1275 C87.443125,173.716375 87.605875,173.7645 88.106375,173.7645 L88.76875,173.7645 C88.83,173.7645 88.885125,173.742625 88.885125,173.716375 C88.885125,173.676125 88.850125,173.66825 88.788875,173.66825" id="Fill-20"></path>
                    <path d="M79.77725,52.63825 L79.77725,51.027375 C70.30975,51.027375 62.608875,43.3265 62.608875,33.86075 C62.608875,24.395 70.30975,16.694125 79.77725,16.694125 C89.243,16.694125 96.943,24.395 96.943,33.86075 L98.555625,33.86075 C98.553875,44.214625 90.13025,52.63825 79.77725,52.63825 M79.776375,14.75075 C69.237875,14.75075 60.664625,23.323125 60.664625,33.86075 C60.664625,44.3975 69.237875,52.97075 79.776375,52.97075 C90.314875,52.97075 98.88725,44.3975 98.88725,33.86075 C98.88725,23.323125 90.314875,14.75075 79.776375,14.75075" id="Fill-21"></path>
                    <path d="M113.722875,33.859875 L112.093625,33.859875 C112.093625,51.681 97.5975,66.17975 79.77725,66.17975 C61.957,66.17975 47.459125,51.681 47.459125,33.859875 C47.459125,16.039625 61.957,1.54175 79.77725,1.54175 L79.77725,-0.0875 C98.494375,-0.086625 113.721125,15.141 113.722875,33.859875 M79.776375,-0.42 C60.8755,-0.42 45.49825,14.958125 45.49825,33.86075 C45.49825,52.7625 60.8755,68.140625 79.776375,68.140625 C98.67725,68.140625 114.055375,52.7625 114.055375,33.86075 C114.055375,14.958125 98.67725,-0.42 79.776375,-0.42" id="Fill-22"></path>
                </g>
            </g>
        </g>
    </g>
</svg>